:SAMPLES-PER-SECOND 30
:FULLY-SPECIFIED
:DEGREES
254
root  10.04682226 37.46822087 -3.304444336 5.993770123 19.42230225 -12.11030006
lfemur  -59.77670288 -5.242530346 0.7646172643
ltibia  -1.491570742e-006 -8.364404493e-007 54.41920471
lfoot  5.521815751e-007 0.857986331 -3.291320562
ltoes  -4.250644065 -19.5611806 -102.515957
rfemur  -3.568429947 7.496630192 23.31959915
rtibia  -8.727266732e-007 2.533748784e-007 42.36320114
rfoot  -2.316020982e-006 -25.35630226 -13.68230057
rtoes  5.373923086 19.29304026 -105.8922705
lowerback  12.80340004 7.011630058 -3.220669985
upperback  4.688189983 8.742090225 -4.146289825
thorax  -1.986359954 4.36191988 -3.777260065
rclavicle  0 -9.442270133e-015 7.951389973e-016
rhumerus  31.06800079 -7.407339573 -37.71369934
rradius  -7.782816926e-012 0.001642658608 67.08529663
rwrist  0.002739921212 0.003270594636 9.311690331
rthumb  -92.93752616 -24.25625642 -97.11982154
rhand  -7.920061211e-032 -33.2840004 9.303460121
rfingers  -90 -7.125020027 -90
lclavicle  0 -9.442270133e-015 7.951389973e-016
lhumerus  6.703210831 -27.3845005 73.28769684
lradius  1.032089952e-011 0.005718162749 135.3280029
lwrist  1.816137865e-011 1.409039812e-011 12.07590008
lthumb  89.89689403 5.08795885 91.16245106
lhand  -1.496451383e-031 -27.76390076 20.11240005
lfingers  90 7.125020027 -90
lowerneck  -1.071930051 -5.620619774 -9.484479904
upperneck  -0.7748892307 -7.585609913 25.58180046
head  1.41237998 -3.695270061 9.393730164
255
root  10.0618445 37.40288742 -3.232200127 4.899149895 18.12470055 -12.61250114
lfemur  -58.81769562 -5.006920815 1.280838847
ltibia  -1.491570742e-006 -8.364404493e-007 55.77449036
lfoot  5.521815751e-007 -0.1690733582 -2.391699791
ltoes  -4.250644065 -19.5611806 -102.515957
rfemur  -3.359626055 7.340820312 22.44949722
rtibia  -8.727266732e-007 2.533748784e-007 43.16478729
rfoot  -2.316020982e-006 -24.40989304 -10.2451992
rtoes  5.373923086 19.29304026 -105.8922705
lowerback  12.69639969 7.080049992 -3.215130091
upperback  4.849349976 8.847310066 -4.172110081
thorax  -1.750010014 4.415740013 -3.792999983
rclavicle  0 -9.442270133e-015 7.951389973e-016
rhumerus  29.50130272 -6.407959938 -40.38389969
rradius  -7.782816926e-012 0.001642658608 69.82009888
rwrist  0.002739921212 0.003270594636 9.306909561
rthumb  -92.93752616 -24.25625642 -97.11982154
rhand  -7.920061211e-032 -33.2840004 9.303460121
rfingers  -90 -7.125020027 -90
lclavicle  0 -9.442270133e-015 7.951389973e-016
lhumerus  7.18914032 -28.08099937 73.5019989
lradius  1.032090212e-011 0.005718162749 134.9069977
lwrist  1.816137865e-011 1.409039812e-011 11.71290016
lthumb  89.89689403 5.08795885 91.16245106
lhand  -1.496451383e-031 -27.76390076 20.11240005
lfingers  90 7.125020027 -90
lowerneck  -0.9785370231 -5.458990097 -9.035240173
upperneck  0.3469658792 -7.581459999 25.70170021
head  1.692899942 -3.632769823 9.351659775
256
root  10.07699966 37.35133194 -3.150755589 3.786459923 16.80240059 -12.90059948
lfemur  -57.53289795 -5.047861099 1.756726384
ltibia  -1.491570742e-006 -8.364404493e-007 56.8434906
lfoot  5.521815751e-007 -1.107656598 -1.345670342
ltoes  -4.250644065 -19.5611806 -102.515957
rfemur  -2.939246893 7.453260422 21.57119751
rtibia  -8.727266732e-007 2.533748784e-007 43.9202919
rfoot  -2.316020982e-006 -23.24769402 -6.564089298
rtoes  5.373923086 19.29304026 -105.8922705
lowerback  12.65330029 7.159900188 -3.492769957
upperback  4.94494009 8.924909592 -4.185470104
thorax  -1.661839962 4.450560093 -3.655869961
rclavicle  0 -9.442270133e-015 7.951389973e-016
rhumerus  27.78439903 -5.356169224 -42.85010147
rradius  -7.782816926e-012 0.001642658608 72.51750183
rwrist  0.002739921212 0.003270594636 9.479669571
rthumb  -92.93752616 -24.25625642 -97.11982154
rhand  -7.920061211e-032 -33.2840004 9.303460121
rfingers  -90 -7.125020027 -90
lclavicle  0 -9.442270133e-015 7.951389973e-016
lhumerus  7.239429474 -28.7397995 73.82679749
lradius  1.032090038e-011 0.005718162749 134.6410065
lwrist  1.816137865e-011 1.409039812e-011 11.48289967
lthumb  89.89689403 5.08795885 91.16245106
lhand  -1.496451383e-031 -27.76390076 20.11240005
lfingers  90 7.125020027 -90
lowerneck  -0.1750890017 -5.237649918 -8.581299782
upperneck  0.8772709966 -7.396359921 25.89909935
head  1.650209904 -3.559420347 9.371250153
257
root  10.08493318 37.31000104 -3.063000093 2.599750042 15.4316988 -13.2201004
lfemur  -55.99289703 -5.246029854 2.406959534
ltibia  -1.491570742e-006 -8.364404493e-007 57.64119339
lfoot  5.521815751e-007 -2.16384697 -0.378785342
ltoes  -4.250644065 -19.5611806 -102.515957
rfemur  -2.335876226 7.921270847 20.99409866
rtibia  -8.727266732e-007 2.533748784e-007 44.58409119
rfoot  -2.316020982e-006 -22.07849503 -3.289919376
rtoes  5.373923086 19.29304026 -105.8922705
lowerback  12.73279953 7.270810127 -3.862200022
upperback  4.961880207 9.019849777 -4.094830036
thorax  -1.753100038 4.489679813 -3.389820099
rclavicle  0 -9.442270133e-015 7.951389973e-016
rhumerus  26.07449913 -4.285000324 -44.55139923
rradius  -7.782816926e-012 0.001642658608 74.99569702
rwrist  0.002739921212 0.003270594636 8.941889763
rthumb  -92.93752616 -24.25625642 -97.11982154
rhand  -7.920061211e-032 -33.2840004 9.303460121
rfingers  -90 -7.125020027 -90
lclavicle  0 -9.442270133e-015 7.951389973e-016
lhumerus  7.200850964 -29.32900047 74.16770172
lradius  1.032090038e-011 0.005718162749 134.4499969
lwrist  1.816137865e-011 1.409039812e-011 11.41559982
lthumb  89.89689403 5.08795885 91.16245106
lhand  -1.496451383e-031 -27.76390076 20.11240005
lfingers  90 7.125020027 -90
lowerneck  0.7755089998 -4.976650238 -8.19192028
upperneck  1.38383019 -7.144110203 26.03910065
head  1.561580062 -3.463649988 9.389969826
258
root  10.09333303 37.28200056 -2.971822258 1.487749934 14.09209919 -13.56710052
lfemur  -54.3891983 -5.517199039 3.128771544
ltibia  -1.491570742e-006 -8.364404493e-007 58.19810104
lfoot  5.521815751e-007 -3.172869921 0.5407740474
ltoes  -4.250644065 -19.5611806 -102.515957
rfemur  -1.746219516 8.639719963 20.65870094
rtibia  -8.727266732e-007 2.533748784e-007 45.10029984
rfoot  -2.316020982e-006 -20.89560127 -0.02075690962
rtoes  5.373923086 19.29304026 -105.8922705
lowerback  12.83619976 7.346570015 -4.199140072
upperback  4.965209961 9.070409775 -3.946120024
thorax  -1.878640056 4.506539822 -3.080379963
rclavicle  0 -9.442270133e-015 7.951389973e-016
rhumerus  22.99030113 -2.942101002 -47.01760101
rradius  -7.782816926e-012 0.001642658608 78.75530243
rwrist  0.002739921212 0.003270594636 9.018500328
rthumb  -92.93752616 -24.25625642 -97.11982154
rhand  -7.920061211e-032 -33.2840004 9.303460121
rfingers  -90 -7.125020027 -90
lclavicle  0 -9.442270133e-015 7.951389973e-016
lhumerus  7.415100574 -29.88829994 74.53150177
lradius  1.032090125e-011 0.005718162749 134.1690063
lwrist  1.816137865e-011 1.409039812e-011 11.22710037
lthumb  89.89689403 5.08795885 91.16245106
lhand  -1.496451383e-031 -27.76390076 20.11240005
lfingers  90 7.125020027 -90
lowerneck  1.362820029 -4.719150066 -7.914730072
upperneck  2.117499828 -6.933370113 26.125
head  1.612490058 -3.34968996 9.396530151
259
root  10.1039113 37.25911238 -2.882422425 0.5652699471 12.81629944 -13.85240078
lfemur  -52.8667984 -5.751999378 3.733572006
ltibia  -1.491570742e-006 -8.364404493e-007 58.54829788
lfoot  5.521815751e-007 -4.032777309 1.415490627
ltoes  -4.250644065 -19.5611806 -102.515957
rfemur  -1.234539509 9.49423027 20.39830017
rtibia  -8.727266732e-007 2.533748784e-007 45.43149567
rfoot  -2.316020982e-006 -19.62919617 3.073110819
rtoes  5.373923086 19.29304026 -105.8922705
lowerback  12.79259968 7.349420071 -4.515950203
upperback  4.981599808 9.040260315 -3.806999922
thorax  -1.909010053 4.484459877 -2.758260012
rclavicle  0 -9.442270133e-015 7.951389973e-016
rhumerus  19.96699905 -1.722480297 -49.12519836
rradius  -7.782816926e-012 0.001642658608 82.53079987
rwrist  0.002739921212 0.003270594636 8.639109612
rthumb  -92.93752616 -24.25625642 -97.11982154
rhand  -7.920061211e-032 -33.2840004 9.303460121
rfingers  -90 -7.125020027 -90
lclavicle  0 -9.442270133e-015 7.951389973e-016
lhumerus  7.753310204 -30.28440094 74.7779007
lradius  1.032090125e-011 0.005718162749 134.0130005
lwrist  1.816137865e-011 1.409039812e-011 11.09420013
lthumb  89.89689403 5.08795885 91.16245106
lhand  -1.496451383e-031 -27.76390076 20.11240005
lfingers  90 7.125020027 -90
lowerneck  1.761790037 -4.403560162 -7.680689812
upperneck  2.86349988 -6.640029907 26.1644001
head  1.686480045 -3.180889845 9.392399788
260
root  10.12133351 37.2597792 -2.791689137 -0.1772700697 11.54909992 -14.08230114
lfemur  -51.39179993 -5.933740616 4.262478828
ltibia  -1.491570742e-006 -8.364404493e-007 58.7267952
lfoot  5.521815751e-007 -4.821867466 2.295490503
ltoes  -4.250644065 -19.5611806 -102.515957
rfemur  -0.8126356006 10.35910034 20.17499924
rtibia  -8.727266732e-007 2.533748784e-007 45.56339264
rfoot  -2.316020982e-006 -18.25949478 5.55384016
rtoes  5.373923086 19.29304026 -105.8922705
lowerback  12.46990013 7.289299965 -4.915170193
upperback  5.041969776 8.945170403 -3.649240017
thorax  -1.758679986 4.428639889 -2.321959972
rclavicle  0 -9.442270133e-015 7.951389973e-016
rhumerus  17.22459984 -0.5399200916 -50.91490173
rradius  -7.782816926e-012 0.001642658608 86.14589691
rwrist  0.002739921212 0.003270594636 8.119589806
rthumb  -92.93752616 -24.25625642 -97.11982154
rhand  -7.920061211e-032 -33.2840004 9.303460121
rfingers  -90 -7.125020027 -90
lclavicle  0 -9.442270133e-015 7.951389973e-016
lhumerus  7.867199898 -30.38170052 74.87799835
lradius  1.032090038e-011 0.005718162749 134.2839966
lwrist  1.816137865e-011 1.409039812e-011 10.81849957
lthumb  89.89689403 5.08795885 91.16245106
lhand  -1.496451383e-031 -27.76390076 20.11240005
lfingers  90 7.125020027 -90
lowerneck  2.131249905 -4.039509773 -7.421820164
upperneck  3.571160316 -6.268159866 26.15099907
head  1.739189744 -2.973320007 9.366499901
